<svg width="1920" height="1080" viewBox="0 0 1920 1080" fill="none" xmlns="http://www.w3.org/2000/svg">
<g clip-path="url(#clip0_174_225)">
<rect width="1920" height="1080" fill="#FAFAFA"/>
<rect width="797" height="520" transform="translate(0 560)" fill="#A37C55"/>
<path d="M74.4142 1021H73.1727V999.273H74.4142V1009.55H89.6228V999.273H90.8643V1021H89.6228V1010.73H74.4142V1021ZM107.934 1021H95.2084V999.273H107.934V1000.45H96.4499V1009.55H107.624V1010.73H96.4499V1019.82H107.934V1021ZM126.907 999.273H128.428L120.047 1010.11L128.428 1021H126.876L119.271 1011.1L111.636 1021H110.115L118.495 1010.17L110.115 999.273H111.667L119.271 1009.17L126.907 999.273ZM131.155 1006.94C130.99 1006.75 130.907 1006.53 130.907 1006.26C130.907 1005.99 130.99 1005.77 131.155 1005.61C131.341 1005.42 131.569 1005.33 131.838 1005.33C132.107 1005.33 132.324 1005.42 132.49 1005.61C132.676 1005.77 132.769 1005.99 132.769 1006.26C132.769 1006.53 132.676 1006.75 132.49 1006.94C132.324 1007.11 132.107 1007.19 131.838 1007.19C131.569 1007.19 131.341 1007.11 131.155 1006.94ZM131.155 1020.91C130.99 1020.72 130.907 1020.49 130.907 1020.22C130.907 1019.96 130.99 1019.74 131.155 1019.57C131.341 1019.39 131.569 1019.29 131.838 1019.29C132.107 1019.29 132.324 1019.39 132.49 1019.57C132.676 1019.74 132.769 1019.96 132.769 1020.22C132.769 1020.49 132.676 1020.72 132.49 1020.91C132.324 1021.07 132.107 1021.16 131.838 1021.16C131.569 1021.16 131.341 1021.07 131.155 1020.91ZM156.311 1011.35L147.838 1019.82H160.377V1021H146.1V1019.88L155.442 1010.51C157.387 1008.52 158.36 1006.65 158.36 1004.89C158.36 1003.48 157.894 1002.35 156.963 1001.48C156.032 1000.59 154.811 1000.14 153.301 1000.14C151.438 1000.14 150 1000.68 148.986 1001.76C147.993 1002.83 147.496 1004.27 147.496 1006.07H146.255C146.255 1003.98 146.865 1002.27 148.086 1000.95C149.328 999.625 151.066 998.963 153.301 998.963C155.184 998.963 156.704 999.511 157.863 1000.61C159.022 1001.68 159.601 1003.11 159.601 1004.89C159.601 1007 158.505 1009.15 156.311 1011.35ZM172.321 999.273L166.517 1008.4C167.758 1007.78 169.01 1007.51 170.272 1007.59C171.535 1007.67 172.673 1007.98 173.686 1008.52C174.7 1009.06 175.528 1009.86 176.17 1010.91C176.811 1011.97 177.132 1013.15 177.132 1014.45C177.132 1016.44 176.459 1018.08 175.114 1019.39C173.769 1020.67 172.01 1021.31 169.838 1021.31C167.686 1021.31 165.927 1020.67 164.561 1019.39C163.216 1018.08 162.544 1016.44 162.544 1014.45C162.544 1013.09 162.989 1011.7 163.878 1010.29L170.862 999.273H172.321ZM165.492 1018.52C166.651 1019.59 168.1 1020.13 169.838 1020.13C171.576 1020.13 173.014 1019.59 174.152 1018.52C175.311 1017.44 175.89 1016.09 175.89 1014.45C175.89 1012.82 175.311 1011.46 174.152 1010.39C173.014 1009.29 171.576 1008.74 169.838 1008.74C168.1 1008.74 166.651 1009.29 165.492 1010.39C164.354 1011.46 163.785 1012.82 163.785 1014.45C163.785 1016.09 164.354 1017.44 165.492 1018.52ZM190.138 1011.35L181.664 1019.82H194.204V1021H179.926V1019.88L189.269 1010.51C191.214 1008.52 192.186 1006.65 192.186 1004.89C192.186 1003.48 191.721 1002.35 190.79 1001.48C189.858 1000.59 188.638 1000.14 187.127 1000.14C185.265 1000.14 183.827 1000.68 182.813 1001.76C181.82 1002.83 181.323 1004.27 181.323 1006.07H180.082C180.082 1003.98 180.692 1002.27 181.913 1000.95C183.154 999.625 184.892 998.963 187.127 998.963C189.01 998.963 190.531 999.511 191.69 1000.61C192.848 1001.68 193.428 1003.11 193.428 1004.89C193.428 1007 192.331 1009.15 190.138 1011.35ZM206.147 999.273L200.343 1008.4C201.585 1007.78 202.837 1007.51 204.099 1007.59C205.361 1007.67 206.499 1007.98 207.513 1008.52C208.527 1009.06 209.355 1009.86 209.996 1010.91C210.638 1011.97 210.958 1013.15 210.958 1014.45C210.958 1016.44 210.286 1018.08 208.941 1019.39C207.596 1020.67 205.837 1021.31 203.664 1021.31C201.512 1021.31 199.754 1020.67 198.388 1019.39C197.043 1018.08 196.37 1016.44 196.37 1014.45C196.37 1013.09 196.815 1011.7 197.705 1010.29L204.689 999.273H206.147ZM199.319 1018.52C200.478 1019.59 201.926 1020.13 203.664 1020.13C205.402 1020.13 206.841 1019.59 207.979 1018.52C209.137 1017.44 209.717 1016.09 209.717 1014.45C209.717 1012.82 209.137 1011.46 207.979 1010.39C206.841 1009.29 205.402 1008.74 203.664 1008.74C201.926 1008.74 200.478 1009.29 199.319 1010.39C198.181 1011.46 197.612 1012.82 197.612 1014.45C197.612 1016.09 198.181 1017.44 199.319 1018.52ZM223.964 1011.35L215.491 1019.82H228.03V1021H213.753V1019.88L223.095 1010.51C225.04 1008.52 226.013 1006.65 226.013 1004.89C226.013 1003.48 225.547 1002.35 224.616 1001.48C223.685 1000.59 222.464 1000.14 220.954 1000.14C219.091 1000.14 217.653 1000.68 216.639 1001.76C215.646 1002.83 215.15 1004.27 215.15 1006.07H213.908C213.908 1003.98 214.518 1002.27 215.739 1000.95C216.981 999.625 218.719 998.963 220.954 998.963C222.837 998.963 224.358 999.511 225.516 1000.61C226.675 1001.68 227.254 1003.11 227.254 1004.89C227.254 1007 226.158 1009.15 223.964 1011.35ZM239.974 999.273L234.17 1008.4C235.411 1007.78 236.663 1007.51 237.925 1007.59C239.188 1007.67 240.326 1007.98 241.34 1008.52C242.353 1009.06 243.181 1009.86 243.823 1010.91C244.464 1011.97 244.785 1013.15 244.785 1014.45C244.785 1016.44 244.112 1018.08 242.767 1019.39C241.422 1020.67 239.664 1021.31 237.491 1021.31C235.339 1021.31 233.58 1020.67 232.214 1019.39C230.869 1018.08 230.197 1016.44 230.197 1014.45C230.197 1013.09 230.642 1011.7 231.532 1010.29L238.515 999.273H239.974ZM233.146 1018.52C234.304 1019.59 235.753 1020.13 237.491 1020.13C239.229 1020.13 240.667 1019.59 241.805 1018.52C242.964 1017.44 243.543 1016.09 243.543 1014.45C243.543 1012.82 242.964 1011.46 241.805 1010.39C240.667 1009.29 239.229 1008.74 237.491 1008.74C235.753 1008.74 234.304 1009.29 233.146 1010.39C232.007 1011.46 231.438 1012.82 231.438 1014.45C231.438 1016.09 232.007 1017.44 233.146 1018.52Z" fill="#FAFAFA"/>
<rect width="651" height="520" transform="translate(797 560)" fill="#F2F0D9"/>
<path d="M867.414 1021H866.173V999.273H867.414V1009.55H882.623V999.273H883.864V1021H882.623V1010.73H867.414V1021ZM900.934 1021H888.208V999.273H900.934V1000.45H889.45V1009.55H900.624V1010.73H889.45V1019.82H900.934V1021ZM919.907 999.273H921.428L913.047 1010.11L921.428 1021H919.876L912.271 1011.1L904.636 1021H903.115L911.495 1010.17L903.115 999.273H904.667L912.271 1009.17L919.907 999.273ZM924.155 1006.94C923.99 1006.75 923.907 1006.53 923.907 1006.26C923.907 1005.99 923.99 1005.77 924.155 1005.61C924.341 1005.42 924.569 1005.33 924.838 1005.33C925.107 1005.33 925.324 1005.42 925.49 1005.61C925.676 1005.77 925.769 1005.99 925.769 1006.26C925.769 1006.53 925.676 1006.75 925.49 1006.94C925.324 1007.11 925.107 1007.19 924.838 1007.19C924.569 1007.19 924.341 1007.11 924.155 1006.94ZM924.155 1020.91C923.99 1020.72 923.907 1020.49 923.907 1020.22C923.907 1019.96 923.99 1019.74 924.155 1019.57C924.341 1019.39 924.569 1019.29 924.838 1019.29C925.107 1019.29 925.324 1019.39 925.49 1019.57C925.676 1019.74 925.769 1019.96 925.769 1020.22C925.769 1020.49 925.676 1020.72 925.49 1020.91C925.324 1021.07 925.107 1021.16 924.838 1021.16C924.569 1021.16 924.341 1021.07 924.155 1020.91ZM940.341 1021H939.1V999.273H951.205V1000.45H940.341V1009.55H950.894V1010.73H940.341V1021ZM970.468 1021H969.133L966.246 1014.61H953.893L951.007 1021H949.672L959.449 999.273H960.691L970.468 1021ZM960.07 1000.89L954.421 1013.43H965.719L960.07 1000.89ZM974.501 1021H973.26V999.273H985.365V1000.45H974.501V1009.55H985.054V1010.73H974.501V1021ZM1004.63 1021H1003.29L1000.41 1014.61H988.053L985.167 1021H983.832L993.609 999.273H994.851L1004.63 1021ZM994.23 1000.89L988.581 1013.43H999.879L994.23 1000.89ZM1008.66 1021H1007.42V999.273H1019.52V1000.45H1008.66V1009.55H1019.21V1010.73H1008.66V1021ZM1038.79 1021H1037.45L1034.57 1014.61H1022.21L1019.33 1021H1017.99L1027.77 999.273H1029.01L1038.79 1021ZM1028.39 1000.89L1022.74 1013.43H1034.04L1028.39 1000.89Z" fill="#0A0A0A"/>
<rect width="472" height="520" transform="translate(1448 560)" fill="#979797"/>
<path d="M1511.41 1021H1510.17V999.273H1511.41V1009.55H1526.62V999.273H1527.86V1021H1526.62V1010.73H1511.41V1021ZM1544.93 1021H1532.21V999.273H1544.93V1000.45H1533.45V1009.55H1544.62V1010.73H1533.45V1019.82H1544.93V1021ZM1563.91 999.273H1565.43L1557.05 1010.11L1565.43 1021H1563.88L1556.27 1011.1L1548.64 1021H1547.12L1555.5 1010.17L1547.12 999.273H1548.67L1556.27 1009.17L1563.91 999.273ZM1568.16 1006.94C1567.99 1006.75 1567.91 1006.53 1567.91 1006.26C1567.91 1005.99 1567.99 1005.77 1568.16 1005.61C1568.34 1005.42 1568.57 1005.33 1568.84 1005.33C1569.11 1005.33 1569.32 1005.42 1569.49 1005.61C1569.68 1005.77 1569.77 1005.99 1569.77 1006.26C1569.77 1006.53 1569.68 1006.75 1569.49 1006.94C1569.32 1007.11 1569.11 1007.19 1568.84 1007.19C1568.57 1007.19 1568.34 1007.11 1568.16 1006.94ZM1568.16 1020.91C1567.99 1020.72 1567.91 1020.49 1567.91 1020.22C1567.91 1019.96 1567.99 1019.74 1568.16 1019.57C1568.34 1019.39 1568.57 1019.29 1568.84 1019.29C1569.11 1019.29 1569.32 1019.39 1569.49 1019.57C1569.68 1019.74 1569.77 1019.96 1569.77 1020.22C1569.77 1020.49 1569.68 1020.72 1569.49 1020.91C1569.32 1021.07 1569.11 1021.16 1568.84 1021.16C1568.57 1021.16 1568.34 1021.07 1568.16 1020.91ZM1589.77 998.963C1591.92 998.963 1593.67 999.615 1595.02 1000.92C1596.38 1002.2 1597.07 1003.84 1597.07 1005.82C1597.07 1007.19 1596.62 1008.57 1595.73 1009.98L1588.75 1021H1587.29L1593.09 1011.87C1591.85 1012.5 1590.6 1012.76 1589.34 1012.68C1588.08 1012.6 1586.94 1012.29 1585.92 1011.75C1584.91 1011.21 1584.08 1010.42 1583.44 1009.36C1582.8 1008.31 1582.48 1007.13 1582.48 1005.82C1582.48 1003.84 1583.15 1002.2 1584.5 1000.92C1585.84 999.615 1587.6 998.963 1589.77 998.963ZM1585.43 1009.92C1586.59 1011 1588.03 1011.53 1589.77 1011.53C1591.51 1011.53 1592.95 1011 1594.09 1009.92C1595.25 1008.82 1595.83 1007.46 1595.83 1005.82C1595.83 1004.19 1595.25 1002.83 1594.09 1001.76C1592.95 1000.68 1591.51 1000.14 1589.77 1000.14C1588.03 1000.14 1586.59 1000.68 1585.43 1001.76C1584.29 1002.83 1583.72 1004.19 1583.72 1005.82C1583.72 1007.46 1584.29 1008.82 1585.43 1009.92ZM1599.56 999.273H1613.84V1000.39L1609.55 1009.55H1613.84V1010.73H1609L1604.18 1021H1602.82L1607.66 1010.73H1599.56V1009.55H1608.22L1612.5 1000.45H1599.56V999.273ZM1623.93 998.963C1626.08 998.963 1627.83 999.615 1629.18 1000.92C1630.54 1002.2 1631.23 1003.84 1631.23 1005.82C1631.23 1007.19 1630.78 1008.57 1629.89 1009.98L1622.91 1021H1621.45L1627.25 1011.87C1626.01 1012.5 1624.76 1012.76 1623.5 1012.68C1622.24 1012.6 1621.1 1012.29 1620.08 1011.75C1619.07 1011.21 1618.24 1010.42 1617.6 1009.36C1616.96 1008.31 1616.64 1007.13 1616.64 1005.82C1616.64 1003.84 1617.31 1002.2 1618.66 1000.92C1620 999.615 1621.76 998.963 1623.93 998.963ZM1619.59 1009.92C1620.75 1011 1622.19 1011.53 1623.93 1011.53C1625.67 1011.53 1627.11 1011 1628.25 1009.92C1629.41 1008.82 1629.99 1007.46 1629.99 1005.82C1629.99 1004.19 1629.41 1002.83 1628.25 1001.76C1627.11 1000.68 1625.67 1000.14 1623.93 1000.14C1622.19 1000.14 1620.75 1000.68 1619.59 1001.76C1618.45 1002.83 1617.88 1004.19 1617.88 1005.82C1617.88 1007.46 1618.45 1008.82 1619.59 1009.92ZM1633.72 999.273H1648V1000.39L1643.71 1009.55H1648V1010.73H1643.16L1638.34 1021H1636.98L1641.82 1010.73H1633.72V1009.55H1642.38L1646.66 1000.45H1633.72V999.273ZM1658.09 998.963C1660.24 998.963 1661.99 999.615 1663.34 1000.92C1664.7 1002.2 1665.39 1003.84 1665.39 1005.82C1665.39 1007.19 1664.94 1008.57 1664.05 1009.98L1657.07 1021H1655.61L1661.41 1011.87C1660.17 1012.5 1658.92 1012.76 1657.66 1012.68C1656.4 1012.6 1655.26 1012.29 1654.24 1011.75C1653.23 1011.21 1652.4 1010.42 1651.76 1009.36C1651.12 1008.31 1650.8 1007.13 1650.8 1005.82C1650.8 1003.84 1651.47 1002.2 1652.82 1000.92C1654.16 999.615 1655.92 998.963 1658.09 998.963ZM1653.75 1009.92C1654.91 1011 1656.35 1011.53 1658.09 1011.53C1659.83 1011.53 1661.27 1011 1662.41 1009.92C1663.57 1008.82 1664.15 1007.46 1664.15 1005.82C1664.15 1004.19 1663.57 1002.83 1662.41 1001.76C1661.27 1000.68 1659.83 1000.14 1658.09 1000.14C1656.35 1000.14 1654.91 1000.68 1653.75 1001.76C1652.61 1002.83 1652.04 1004.19 1652.04 1005.82C1652.04 1007.46 1652.61 1008.82 1653.75 1009.92ZM1667.88 999.273H1682.16V1000.39L1677.87 1009.55H1682.16V1010.73H1677.32L1672.5 1021H1671.14L1675.98 1010.73H1667.88V1009.55H1676.54L1680.82 1000.45H1667.88V999.273Z" fill="#FAFAFA"/>
<rect width="1016" height="560" fill="#3E4A36"/>
<path d="M74.4142 496H73.1727V474.273H74.4142V484.547H89.6228V474.273H90.8643V496H89.6228V485.726H74.4142V496ZM107.934 496H95.2084V474.273H107.934V475.453H96.4499V484.547H107.624V485.726H96.4499V494.821H107.934V496ZM126.907 474.273H128.428L120.047 485.106L128.428 496H126.876L119.271 486.099L111.636 496H110.115L118.495 485.168L110.115 474.273H111.667L119.271 484.175L126.907 474.273ZM131.155 481.94C130.99 481.754 130.907 481.526 130.907 481.257C130.907 480.988 130.99 480.771 131.155 480.605C131.341 480.419 131.569 480.326 131.838 480.326C132.107 480.326 132.324 480.419 132.49 480.605C132.676 480.771 132.769 480.988 132.769 481.257C132.769 481.526 132.676 481.754 132.49 481.94C132.324 482.105 132.107 482.188 131.838 482.188C131.569 482.188 131.341 482.105 131.155 481.94ZM131.155 495.907C130.99 495.721 130.907 495.493 130.907 495.224C130.907 494.955 130.99 494.738 131.155 494.572C131.341 494.386 131.569 494.293 131.838 494.293C132.107 494.293 132.324 494.386 132.49 494.572C132.676 494.738 132.769 494.955 132.769 495.224C132.769 495.493 132.676 495.721 132.49 495.907C132.324 496.072 132.107 496.155 131.838 496.155C131.569 496.155 131.341 496.072 131.155 495.907ZM148.179 493.145C146.586 491.013 145.789 488.344 145.789 485.137C145.789 481.929 146.586 479.271 148.179 477.16C149.773 475.029 151.8 473.963 154.263 473.963C156.725 473.963 158.753 475.029 160.346 477.16C161.939 479.271 162.736 481.929 162.736 485.137C162.736 488.344 161.939 491.013 160.346 493.145C158.753 495.255 156.725 496.31 154.263 496.31C151.8 496.31 149.773 495.255 148.179 493.145ZM149.079 477.998C147.714 479.902 147.031 482.281 147.031 485.137C147.031 487.992 147.714 490.372 149.079 492.275C150.445 494.179 152.173 495.131 154.263 495.131C156.353 495.131 158.08 494.179 159.446 492.275C160.812 490.372 161.495 487.992 161.495 485.137C161.495 482.281 160.812 479.902 159.446 477.998C158.08 476.094 156.353 475.142 154.263 475.142C152.173 475.142 150.445 476.094 149.079 477.998ZM185.075 496H183.741L180.854 489.606H168.501L165.615 496H164.28L174.057 474.273H175.299L185.075 496ZM174.678 475.887L169.029 488.427H180.327L174.678 475.887ZM189.008 493.145C187.414 491.013 186.618 488.344 186.618 485.137C186.618 481.929 187.414 479.271 189.008 477.16C190.601 475.029 192.629 473.963 195.091 473.963C197.553 473.963 199.581 475.029 201.174 477.16C202.768 479.271 203.564 481.929 203.564 485.137C203.564 488.344 202.768 491.013 201.174 493.145C199.581 495.255 197.553 496.31 195.091 496.31C192.629 496.31 190.601 495.255 189.008 493.145ZM189.908 477.998C188.542 479.902 187.859 482.281 187.859 485.137C187.859 487.992 188.542 490.372 189.908 492.275C191.273 494.179 193.001 495.131 195.091 495.131C197.181 495.131 198.909 494.179 200.274 492.275C201.64 490.372 202.323 487.992 202.323 485.137C202.323 482.281 201.64 479.902 200.274 477.998C198.909 476.094 197.181 475.142 195.091 475.142C193.001 475.142 191.273 476.094 189.908 477.998ZM225.904 496H224.569L221.683 489.606H209.329L206.443 496H205.108L214.885 474.273H216.127L225.904 496ZM215.506 475.887L209.857 488.427H221.155L215.506 475.887ZM229.836 493.145C228.243 491.013 227.446 488.344 227.446 485.137C227.446 481.929 228.243 479.271 229.836 477.16C231.429 475.029 233.457 473.963 235.919 473.963C238.382 473.963 240.409 475.029 242.003 477.16C243.596 479.271 244.393 481.929 244.393 485.137C244.393 488.344 243.596 491.013 242.003 493.145C240.409 495.255 238.382 496.31 235.919 496.31C233.457 496.31 231.429 495.255 229.836 493.145ZM230.736 477.998C229.37 479.902 228.687 482.281 228.687 485.137C228.687 487.992 229.37 490.372 230.736 492.275C232.102 494.179 233.829 495.131 235.919 495.131C238.009 495.131 239.737 494.179 241.103 492.275C242.468 490.372 243.151 487.992 243.151 485.137C243.151 482.281 242.468 479.902 241.103 477.998C239.737 476.094 238.009 475.142 235.919 475.142C233.829 475.142 232.102 476.094 230.736 477.998ZM266.732 496H265.397L262.511 489.606H250.158L247.271 496H245.937L255.714 474.273H256.955L266.732 496ZM256.334 475.887L250.685 488.427H261.983L256.334 475.887Z" fill="#FAFAFA"/>
<rect width="904" height="560" transform="matrix(-1 0 0 1 1920 0)" fill="#0F0F0F"/>
<path d="M1082.41 534H1081.17V512.273H1082.41V522.547H1097.62V512.273H1098.86V534H1097.62V523.726H1082.41V534ZM1115.93 534H1103.21V512.273H1115.93V513.453H1104.45V522.547H1115.62V523.726H1104.45V532.821H1115.93V534ZM1134.91 512.273H1136.43L1128.05 523.106L1136.43 534H1134.88L1127.27 524.099L1119.64 534H1118.12L1126.5 523.168L1118.12 512.273H1119.67L1127.27 522.175L1134.91 512.273ZM1139.16 519.94C1138.99 519.754 1138.91 519.526 1138.91 519.257C1138.91 518.988 1138.99 518.771 1139.16 518.605C1139.34 518.419 1139.57 518.326 1139.84 518.326C1140.11 518.326 1140.32 518.419 1140.49 518.605C1140.68 518.771 1140.77 518.988 1140.77 519.257C1140.77 519.526 1140.68 519.754 1140.49 519.94C1140.32 520.105 1140.11 520.188 1139.84 520.188C1139.57 520.188 1139.34 520.105 1139.16 519.94ZM1139.16 533.907C1138.99 533.721 1138.91 533.493 1138.91 533.224C1138.91 532.955 1138.99 532.738 1139.16 532.572C1139.34 532.386 1139.57 532.293 1139.84 532.293C1140.11 532.293 1140.32 532.386 1140.49 532.572C1140.68 532.738 1140.77 532.955 1140.77 533.224C1140.77 533.493 1140.68 533.721 1140.49 533.907C1140.32 534.072 1140.11 534.155 1139.84 534.155C1139.57 534.155 1139.34 534.072 1139.16 533.907ZM1155.34 534H1154.1V512.273H1166.2V513.453H1155.34V522.547H1165.89V523.726H1155.34V534ZM1170.56 534H1169.32V512.273H1181.42V513.453H1170.56V522.547H1181.11V523.726H1170.56V534ZM1186.68 531.082C1184.53 528.93 1183.46 526.282 1183.46 523.137C1183.46 519.992 1184.53 517.343 1186.68 515.191C1188.84 513.039 1191.48 511.963 1194.63 511.963C1196.86 511.963 1198.85 512.553 1200.59 513.732C1202.35 514.912 1203.63 516.412 1204.44 518.233L1203.32 518.76C1202.55 517.084 1201.4 515.729 1199.84 514.694C1198.29 513.66 1196.55 513.142 1194.63 513.142C1191.84 513.142 1189.48 514.105 1187.55 516.029C1185.65 517.953 1184.7 520.323 1184.7 523.137C1184.7 525.951 1185.65 528.32 1187.55 530.244C1189.48 532.169 1191.84 533.131 1194.63 533.131C1196.55 533.131 1198.29 532.614 1199.84 531.579C1201.4 530.544 1202.55 529.189 1203.32 527.513L1204.44 528.041C1203.63 529.862 1202.35 531.362 1200.59 532.541C1198.85 533.721 1196.86 534.31 1194.63 534.31C1191.48 534.31 1188.84 533.234 1186.68 531.082ZM1218.94 522.826C1220.39 523.261 1221.54 523.975 1222.39 524.968C1223.26 525.94 1223.69 527.058 1223.69 528.32C1223.69 530.058 1222.94 531.496 1221.43 532.634C1219.94 533.752 1218.05 534.31 1215.78 534.31C1213.5 534.31 1211.61 533.752 1210.1 532.634C1208.61 531.496 1207.86 530.058 1207.86 528.32C1207.86 527.058 1208.29 525.94 1209.14 524.968C1210 523.975 1211.16 523.261 1212.61 522.826C1211.47 522.35 1210.57 521.668 1209.91 520.778C1209.27 519.888 1208.95 518.874 1208.95 517.736C1208.95 516.081 1209.59 514.705 1210.87 513.608C1212.18 512.511 1213.81 511.963 1215.78 511.963C1217.74 511.963 1219.37 512.511 1220.65 513.608C1221.95 514.705 1222.61 516.081 1222.61 517.736C1222.61 518.874 1222.28 519.888 1221.61 520.778C1220.97 521.668 1220.08 522.35 1218.94 522.826ZM1211.77 514.446C1210.72 515.315 1210.19 516.412 1210.19 517.736C1210.19 519.06 1210.72 520.157 1211.77 521.026C1212.85 521.874 1214.18 522.299 1215.78 522.299C1217.37 522.299 1218.7 521.874 1219.75 521.026C1220.83 520.157 1221.36 519.06 1221.36 517.736C1221.36 516.412 1220.83 515.315 1219.75 514.446C1218.7 513.577 1217.37 513.142 1215.78 513.142C1214.18 513.142 1212.85 513.577 1211.77 514.446ZM1211 531.765C1212.26 532.676 1213.85 533.131 1215.78 533.131C1217.7 533.131 1219.3 532.676 1220.56 531.765C1221.82 530.855 1222.45 529.706 1222.45 528.32C1222.45 526.934 1221.81 525.785 1220.53 524.875C1219.26 523.944 1217.68 523.478 1215.78 523.478C1213.87 523.478 1212.28 523.944 1211 524.875C1209.74 525.785 1209.1 526.934 1209.1 528.32C1209.1 529.706 1209.74 530.855 1211 531.765ZM1229.02 531.145C1227.42 529.013 1226.63 526.344 1226.63 523.137C1226.63 519.929 1227.42 517.271 1229.02 515.16C1230.61 513.029 1232.64 511.963 1235.1 511.963C1237.56 511.963 1239.59 513.029 1241.18 515.16C1242.78 517.271 1243.57 519.929 1243.57 523.137C1243.57 526.344 1242.78 529.013 1241.18 531.145C1239.59 533.255 1237.56 534.31 1235.1 534.31C1232.64 534.31 1230.61 533.255 1229.02 531.145ZM1229.92 515.998C1228.55 517.902 1227.87 520.281 1227.87 523.137C1227.87 525.992 1228.55 528.372 1229.92 530.275C1231.28 532.179 1233.01 533.131 1235.1 533.131C1237.19 533.131 1238.92 532.179 1240.28 530.275C1241.65 528.372 1242.33 525.992 1242.33 523.137C1242.33 520.281 1241.65 517.902 1240.28 515.998C1238.92 514.094 1237.19 513.142 1235.1 513.142C1233.01 513.142 1231.28 514.094 1229.92 515.998ZM1249.23 531.145C1247.64 529.013 1246.84 526.344 1246.84 523.137C1246.84 519.929 1247.64 517.271 1249.23 515.16C1250.83 513.029 1252.85 511.963 1255.32 511.963C1257.78 511.963 1259.81 513.029 1261.4 515.16C1262.99 517.271 1263.79 519.929 1263.79 523.137C1263.79 526.344 1262.99 529.013 1261.4 531.145C1259.81 533.255 1257.78 534.31 1255.32 534.31C1252.85 534.31 1250.83 533.255 1249.23 531.145ZM1250.13 515.998C1248.77 517.902 1248.08 520.281 1248.08 523.137C1248.08 525.992 1248.77 528.372 1250.13 530.275C1251.5 532.179 1253.23 533.131 1255.32 533.131C1257.41 533.131 1259.13 532.179 1260.5 530.275C1261.87 528.372 1262.55 525.992 1262.55 523.137C1262.55 520.281 1261.87 517.902 1260.5 515.998C1259.13 514.094 1257.41 513.142 1255.32 513.142C1253.23 513.142 1251.5 514.094 1250.13 515.998Z" fill="#FAFAFA"/>
</g>
<defs>
<clipPath id="clip0_174_225">
<rect width="1920" height="1080" fill="white"/>
</clipPath>
</defs>
</svg>
