<svg width="963" height="644" viewBox="0 0 963 644" fill="none" xmlns="http://www.w3.org/2000/svg">
<path d="M716.204 320.453C668.551 296.02 599.845 250.788 620.835 189.767C625.888 175.068 634.109 162.459 644.732 151.07C670.404 123.526 707.817 102.402 742.496 87.8634C759.781 80.5366 776.964 74.3214 794.951 68.7066C849.713 51.6131 905.127 39.6425 962.904 32.9609L962.968 372.96L864.175 373.005C838.663 366.968 814.204 359.725 789.464 351.242C764.156 342.663 739.979 332.526 716.204 320.459V320.453Z" fill="#D9D9D9"/>
<path d="M496.32 372.851L346.745 373.036C296.729 361.021 250.086 346.297 204.037 323.538C170.278 306.847 134.264 283.187 111.779 252.839C78.6464 208.118 84.2676 161.111 121.834 121.322C142.958 98.9457 174.596 79.4313 202.396 65.8893C249.333 43.0213 302.581 25.3273 353.337 13.1012C375.356 7.79301 397.208 3.87096 419.591 0H642.426C643.365 0.0511017 642.822 1.38613 641.775 0.683486C607.479 5.02713 573.79 9.77321 539.84 16.2056L487.569 27.2372C414.2 44.4521 322.268 74.9215 267.097 127.32C232.424 160.255 214.628 204.726 242.772 247.671C258.007 270.916 282.019 288.68 305.87 302.816C327.87 315.707 350.623 326.444 374.487 335.7C414.34 351.146 454.902 363.008 496.314 372.851H496.32Z" fill="#D9D9D9"/>
<path d="M540.822 297.169C575.291 320.536 613.962 335.7 653.598 348.552C683.575 358.268 713.591 365.978 744.15 372.857L614.933 373.055C581.812 365.243 549.51 355.866 517.731 343.902C493.809 334.774 470.947 324.598 448.814 311.867C430.366 301.462 413.394 289.638 397.974 275.234C386.023 264.075 376.23 251.727 368.725 237.361C357.188 215.279 355.783 190.609 365.448 167.543C371.107 154.027 379.022 142.012 389.165 131.204C401.609 117.943 415.559 106.841 430.954 97.0357C474.282 69.4408 527.312 50.1563 576.958 36.7101C644.278 18.4796 711.049 7.85042 780.438 0.0126953H962.929L962.852 19.5655C906.609 23.0213 851.176 29.5239 795.711 38.8628C736.817 48.8915 677.207 62.9956 621.582 84.4966C588.411 97.3168 553.534 114.506 527.012 138.16C495.764 166.023 475.227 205.199 493.573 246.036C503.135 267.326 521.595 284.151 540.822 297.182V297.169Z" fill="#D9D9D9"/>
<path d="M86.3432 542.642L314.097 542.694L292.947 587.139H72.7501C58.1606 585.932 44.823 579.889 35.0562 569.062C27.704 560.911 21.7698 550.467 21.7634 539.142L21.7314 457.373C21.7314 446.929 26.8863 437.379 33.4721 429.637C43.3539 418.018 57.4516 411.305 72.7565 409.912H313.618L292.89 452.461L87.0267 452.493C79.0165 453.042 72.5202 458.785 72.5266 467.012L72.6032 528.839C72.6096 536.453 78.7418 541.748 86.3432 542.649V542.642Z" fill="#D9D9D9"/>
<path d="M939.512 542.687L918.164 587.248L866.596 587.184L698.088 586.897C672.914 586.852 646.852 562.917 646.833 538.459L646.763 458.05C646.756 448.111 650.883 439.123 656.913 431.535C667.28 418.491 682.611 410.851 699.417 409.861L939.18 409.9L918.241 452.461L711.758 452.48C703.581 453.323 697.232 459.302 697.232 467.619L697.258 528.245C697.258 536.383 703.952 541.998 711.886 542.636L939.525 542.681L939.512 542.687Z" fill="#D9D9D9"/>
<path d="M628.028 542.694L606.949 587.331L380.025 587.139C352.89 587.114 326.362 562.853 327.614 534.556L327.55 409.899H377.808L377.847 528.174C378.575 536.427 384.381 541.997 392.609 542.643L628.028 542.694Z" fill="#D9D9D9"/>
<path d="M131.587 344.483C163.455 356.032 195.017 364.662 227.55 372.845L0.0638771 373.049L0 276.889C17.6045 290.188 35.669 301.36 55.0877 311.472C79.7698 324.388 104.963 335.081 131.587 344.477V344.483Z" fill="#D9D9D9"/>
<path d="M653.26 643.466C648.597 643.453 646.118 639.576 646.291 635.705C646.489 631.182 649.21 629.336 653.215 628.448L680.899 622.323C680.759 621.939 680.714 621.422 680.778 620.981L647.575 620.892L647.332 614.734L680.139 614.657C684.195 614.645 687.453 616.618 688.162 620.183C688.871 623.747 687.689 627.969 683.774 628.921L653.585 636.273C665.211 638.215 675.962 636.574 687.319 637.033L687.479 643.568L653.26 643.466Z" fill="#D9D9D9"/>
<path d="M843.12 643.428L809.572 643.587L809.757 637.526L842.405 637.353C843.599 636.823 843.682 633.731 842.941 632.141L815.053 632.096C810.032 632.09 807.406 628.142 807.394 623.447C807.387 618.752 809.987 614.734 815.04 614.728L847.425 614.689L847.445 620.898L814.401 620.93C813.558 622.15 813.628 625.676 814.854 626.098L841.702 626.232C846.908 626.258 849.629 629.962 849.546 634.996C849.482 638.873 847.962 643.402 843.126 643.428H843.12Z" fill="#D9D9D9"/>
<path d="M194.136 643.441L160.836 643.581L160.945 637.513L193.989 637.468C194.698 635.744 194.781 634.108 194.078 632.109L166.157 632.019C161.264 632.007 158.869 627.938 158.831 623.485C158.786 618.624 161.494 614.709 166.636 614.702L198.639 614.664L198.773 620.815L165.487 620.892C165.129 622.802 165.091 624.444 165.998 626.232L192.756 626.2C198.032 626.194 200.99 629.873 200.887 635.009C200.804 639.008 199.029 643.422 194.136 643.447V643.441Z" fill="#D9D9D9"/>
<path d="M478 643.383L472.097 643.562L470.884 632.103L444.132 632.077L444.081 643.556L437.814 643.543L437.897 614.722L470.545 614.747C474.448 614.747 476.709 617.909 476.978 621.48C477.201 624.393 476.454 626.705 475.176 629.049C476.154 630.487 477.009 632.416 477.176 634.249L478 643.39V643.383ZM470.258 626.296C471.337 624.252 471.344 622.649 470.647 620.879H444.419C443.819 622.662 443.768 624.29 444.343 626.283L470.258 626.303V626.296Z" fill="#D9D9D9"/>
<path d="M293.012 643.409L286.988 643.53L285.806 632.23L259.093 632.103L258.901 643.569L253.095 643.556V614.709L285.302 614.728C289.307 614.728 291.434 617.858 291.843 621.486C292.149 624.169 290.661 626.296 290.552 628.724C290.45 630.953 292.596 633.508 292.264 636.216L293.005 643.415L293.012 643.409ZM284.989 626.239C286.266 624.559 286.477 622.112 285.321 620.905L259.278 620.86C258.703 622.706 258.703 624.239 259.163 626.271L284.989 626.232V626.239Z" fill="#D9D9D9"/>
<path d="M793.858 643.498L769.598 643.575C765.011 643.587 761.543 640.63 760.942 636.05L761.045 622.297C761.07 618.778 764.028 614.836 767.784 614.843L793.711 614.875C797.595 614.875 799.965 619.078 800.45 622.502L800.438 635.015C800.438 638.995 798.01 642.47 793.852 643.492L793.858 643.498ZM794.369 636.804L794.044 620.918L767.075 621.026L766.992 637.015L794.369 636.804Z" fill="#D9D9D9"/>
<path d="M97.8406 643.492L73.5673 643.543C69.3578 642.815 66.3364 639.308 66.3556 634.977L66.4003 622.796C66.4131 618.925 69.345 614.837 73.4332 614.83L98.1856 614.767C102.203 614.754 104.963 618.133 105.512 621.914L105.48 635.974C105.474 639.966 102.197 643.479 97.8406 643.486V643.492ZM99.7314 636.964L99.6994 621.097L72.5325 620.969L72.5197 637.034L99.7314 636.964Z" fill="#D9D9D9"/>
<path d="M424.176 643.563L400.376 643.595C395.406 643.601 391.414 640.024 391.471 634.978L391.618 622.292C391.663 618.619 394.703 614.856 398.568 614.85L423.978 614.799C427.792 614.792 430.947 618.459 430.941 622.157L430.922 636.268C430.922 639.858 427.722 642.624 424.17 643.569L424.176 643.563ZM425.154 636.817L424.937 620.874L397.546 621.129L397.661 637.06L425.16 636.817H425.154Z" fill="#D9D9D9"/>
<path d="M59.0034 637.091L58.9651 643.607L26.3366 643.358C22.389 643.326 19.4507 638.963 19.4698 635.399L19.5209 622.508C19.5337 618.714 22.7148 614.805 26.7327 614.792L59.0353 614.664L59.0481 620.898L25.5509 621.013L25.5382 636.919L59.0098 637.085L59.0034 637.091Z" fill="#D9D9D9"/>
<path d="M722.023 637.137L753.08 637.098L753.201 643.537L722.93 643.639C718.203 643.652 713.866 640.822 713.853 635.789L713.814 622.413C713.802 618.612 717.13 614.805 721.065 614.786L753.284 614.633L753.099 620.842L719.908 621.033L719.634 634.971C719.615 636.102 720.502 637.13 722.023 637.13V637.137Z" fill="#D9D9D9"/>
<path d="M151.811 635.967C151.817 639.417 150.201 642.01 147.639 643.115C144.842 644.323 142.101 643.377 139.898 641.18L119.259 620.618L118.907 643.543L113.107 643.531L113.286 619.762C113.305 617.334 115.918 615.431 117.572 614.945C119.827 614.281 122.753 614.69 124.458 616.402L145.506 637.481L145.838 614.716L151.772 614.76L151.811 635.967Z" fill="#D9D9D9"/>
<path d="M339.444 614.715L339.342 635.469C339.322 639.18 336.275 643.325 332.417 643.357L308.399 643.555C303.43 643.594 299.584 639.927 299.572 634.926L299.521 614.702L305.557 614.74L305.774 636.995L333.305 636.925L333.484 614.734L339.444 614.715Z" fill="#D9D9D9"/>
<path d="M624.956 614.824L624.732 635.948C624.694 639.518 621.57 643.357 617.968 643.383L593.924 643.562C589.242 643.6 585.307 640.266 585.288 635.52L585.218 614.76L591.024 614.709L591.254 636.989L618.747 636.938L618.9 614.702L624.949 614.824H624.956Z" fill="#D9D9D9"/>
<path d="M923.466 635.75L908.014 635.552L907.765 643.549L901.939 643.53L902.112 619.761C902.131 617.327 904.744 615.354 906.43 614.906C908.806 614.28 912.038 614.664 913.833 616.567L939.199 643.37C936.51 643.428 933.444 644.022 930.895 643.325C928.078 641.684 926.258 638.381 923.466 635.756V635.75ZM917.902 630.403L909.662 621.352C909.113 620.751 908.084 620.949 907.771 621.652L907.701 630.499L917.902 630.409V630.403Z" fill="#D9D9D9"/>
<path d="M507.006 635.737L491.739 635.533L491.65 643.396L485.729 643.492L485.882 620.26C485.901 617.583 488.073 615.488 490.015 614.996C492.289 614.415 495.393 614.249 497.175 616.152L522.566 643.204C519.788 643.53 516.881 643.996 514.448 643.345C511.612 641.626 509.778 638.407 507.012 635.737H507.006ZM501.596 630.218L492.257 620.368L491.675 630.467L501.596 630.218Z" fill="#D9D9D9"/>
<path d="M229.555 643.492L223.743 643.543L223.73 621.077L207.492 620.924L207.524 614.702H245.927L245.818 620.873L229.626 621.013L229.555 643.492Z" fill="#D9D9D9"/>
<path d="M368.705 643.499L362.662 643.524L362.701 620.963L346.687 620.899L346.565 614.741L384.892 614.671L384.988 620.924L368.795 620.937L368.705 643.499Z" fill="#D9D9D9"/>
<path d="M878.981 643.313C877.129 643.728 875.098 643.677 873.105 643.377L873.079 620.931H856.816L856.784 614.722L895.264 614.696L895.347 620.912L878.943 620.988L878.981 643.313Z" fill="#D9D9D9"/>
<path d="M577.545 637.04L577.615 643.543L556.874 643.613C551.662 643.633 548.065 640.132 548.053 634.945L547.995 614.709L554 614.741L553.948 634.984C553.948 636.306 554.996 637.079 556.21 637.079L577.545 637.047V637.04Z" fill="#D9D9D9"/>
<path d="M638.812 614.688L632.182 614.724L632.338 643.628L638.968 643.592L638.812 614.688Z" fill="#D9D9D9"/>
<path d="M916.503 32.0085L916.395 30.9609L923.568 30.1689C926.168 29.8814 928.806 28.5719 931.125 29.9261L916.503 32.0085Z" fill="#D9D9D9"/>
<path d="M912.715 31.2167L913.239 32.5773C912.632 32.6795 912.038 32.852 911.399 32.8839C911.495 32.2962 911.163 31.7788 910.703 31.37C911.412 31.2998 911.898 31.0123 912.715 31.2167Z" fill="#D9D9D9"/>
<path d="M916.395 30.9609L916.503 32.0085L913.246 32.5706L912.722 31.2101C913.846 31.4911 915.258 31.0887 916.395 30.9609Z" fill="#D9D9D9"/>
<path d="M909.451 32.98C909.675 33.491 909.375 33.7529 909.049 33.7338L908.033 33.6763C908.033 33.3186 908.142 32.9289 908.57 32.7054C908.927 32.5137 909.196 32.897 909.458 32.98H909.451Z" fill="#D9D9D9"/>
<path d="M887.114 33.7271C887.293 34.7619 886.003 34.928 885.888 33.9059C886.009 33.6632 886.277 33.4141 886.59 33.4141C886.756 33.4141 886.986 33.5674 887.114 33.7271Z" fill="#D9D9D9"/>
<path d="M905.625 33.7649C905.6 34.9274 904.424 34.097 904.041 34.1673C904.182 33.9693 904.296 33.5285 904.731 33.3305C905.14 33.1452 905.402 33.6499 905.619 33.7649H905.625Z" fill="#D9D9D9"/>
</svg>
