<svg width="967" height="303" viewBox="0 0 967 303" fill="none" xmlns="http://www.w3.org/2000/svg">
<path d="M242.701 219.111L236.964 210.126C228.941 195.954 221.16 182.014 212.133 168.465L196.064 144.352C193.55 140.58 191.474 136.798 188.664 133.233L188.638 114.27C188.638 113.023 188.104 111.634 186.873 110.773C179.256 114.18 171.286 117.228 164.086 121.427C160.637 123.44 159.395 127.412 157.224 130.449C138.663 156.48 121.929 186.583 107.16 215.012L97.2346 234.112L92.2165 237.524L92.8398 274.42L93.2148 285.26L96.474 293.146L48.5116 293.252L30.5997 254.258L0 189.24L49.6473 140.131L99.02 90.7112L161.762 26.2367L186.519 0.549446L227.763 0.52832L251.126 36.1673L268.51 36.2623L268.541 53.5193L220.315 53.4823C214.52 54.3697 209.645 58.2627 208.689 64.1312C207.617 70.7075 212.26 76.4281 218.693 77.4899L231.397 77.5321L231.445 105.639L254.57 105.607L254.633 77.5004L267.231 77.474L267.274 121.559C271.357 128.701 274.177 135.811 277.616 143.116L289.633 168.645L316.572 227.15L347.362 293.167L269.154 293.209L249.409 230.473C248.633 227.097 247.656 224.229 245.432 221.673C245.659 220.019 243.176 219.871 242.69 219.116L242.701 219.111Z" fill="#D9D9D9"/>
<path d="M807.487 211.679L757.169 211.689L757.158 0.575757L808.2 0.517653L846.274 67.2581L882.88 130.85L882.742 117.872L882.716 0.0369792L933.346 0L933.372 211.631L883.207 211.731L863.209 177.064L812.621 88.3288C810.957 85.207 809.822 82.2437 807.476 79.6871L807.492 211.684L807.487 211.679Z" fill="#D9D9D9"/>
<path d="M673.75 211.726L621.884 211.852L621.916 40.3661L560.463 40.3767L560.516 0.00488281L735.837 0.0101702L735.848 40.3555L673.75 40.3872V211.726Z" fill="#D9D9D9"/>
<path d="M485.043 211.6L433.452 211.716L433.478 40.4038L371.771 40.3722L371.951 0.0267717L547.431 0.0214844L547.531 40.2876L484.937 40.3986L485.043 211.6Z" fill="#D9D9D9"/>
<path d="M167.256 274.374L164.52 271.336L143.201 269.414L108.275 245.712L125.897 223.723L160.157 180.974C163.305 177.165 166.3 173.843 169.654 170.325C173.009 166.807 176.067 163.051 180.039 159.893L186.547 175.037L216.809 243.51L239.585 293.205L145.52 293.104L173.664 279.503C176.194 278.277 178.455 276.909 179.817 274.342C179.125 273.069 177.567 271.558 176.12 271.949L167.267 274.363L167.256 274.374Z" fill="#D9D9D9"/>
<path d="M757.282 290.648L749.865 290.769L749.85 254.729H757.472L771.137 277.743L771.216 254.57L778.632 254.676L778.638 290.833L771.121 290.891L757.54 267.913L757.282 290.648Z" fill="#D9D9D9"/>
<path d="M703.832 291.007L697.43 277.844C695.417 277.675 693.833 277.601 691.862 277.923L691.767 290.96L684.293 290.939L684.314 254.618L699.569 254.729C702.765 254.75 705.786 256.176 708.121 258.173C710.614 260.93 711.031 264.464 710.551 268.067C710.07 271.669 707.894 274.263 704.249 275.773L712.046 290.849L703.832 291.002V291.007ZM703.156 265.632C702.971 262.827 701.196 260.967 698.618 260.946L691.846 260.883L691.905 271.611L698.264 271.579C701.45 271.563 703.372 269.017 703.15 265.632H703.156Z" fill="#D9D9D9"/>
<path d="M901.92 291.06L895.354 277.939C893.336 277.622 891.54 277.648 889.586 277.976L889.533 290.901L882.059 290.732V254.681L895.776 254.586C898.645 254.565 901.471 255.495 903.959 256.715C907.381 258.897 908.665 262.457 908.549 266.418C908.422 270.66 906.489 274.019 902.178 275.842L909.832 290.759L901.925 291.055L901.92 291.06ZM895.882 271.595C899.12 271.621 901.027 269.028 901.069 266.149C901.111 263.27 899.057 260.877 895.829 260.872L889.533 260.862V271.542L895.887 271.59L895.882 271.595Z" fill="#D9D9D9"/>
<path d="M530.402 278.652C530.613 285.656 525.241 290.553 518.184 291.408C520.017 292.697 521.242 292.893 521.771 294.329C522.204 295.513 522.346 297.103 521.686 298.566C520.244 301.751 516.356 303.082 513.198 302.475L513.309 298.386C514.566 298.043 516.372 296.986 516.135 295.486C515.966 294.425 514.117 293.981 513.029 294.208L513.013 291.097C501.846 288.799 500.219 277.257 501.915 266.508C503.251 258.051 510.451 253.134 518.765 254.275C525.706 255.231 530.639 260.402 530.534 267.396L522.854 267.195C523.107 263.429 520.978 261.068 517.614 260.582C513.979 260.059 510.868 261.902 509.838 265.605C508.56 270.222 508.745 275.271 509.775 279.946C510.541 283.427 513.187 285.191 516.636 285.117C520.318 285.043 523.07 282.756 522.711 278.731L530.391 278.657L530.402 278.652Z" fill="#D9D9D9"/>
<path d="M581.822 291.351C575.076 291.229 569.715 286.856 568.009 280.559C566.667 275.599 566.646 270.323 567.871 265.347C569.535 258.596 575.23 254.207 582.112 254.154C588.995 254.101 594.9 258.696 596.533 265.753C597.684 270.735 597.626 276.144 596.216 281.045C594.335 287.595 588.932 291.478 581.816 291.351H581.822ZM589.08 266.419C588.255 262.674 585.514 260.387 581.88 260.508C578.695 260.614 576.022 262.896 575.282 266.461C573.613 274.538 574.59 285.176 582.408 285.092C589.872 285.012 590.838 274.406 589.085 266.414L589.08 266.419Z" fill="#D9D9D9"/>
<path d="M415.967 291.34C408.984 291.065 403.824 286.369 402.397 279.745C401.447 275.34 401.473 270.612 402.329 266.165C403.766 258.685 409.845 254.021 417.071 254.153C424.297 254.285 430.277 259.509 431.312 267.216C431.84 271.162 431.914 275.345 431.201 279.222C429.817 286.776 423.922 291.657 415.967 291.345V291.34ZM423.209 265.32C422.227 261.976 419.211 260.259 416.062 260.518C413.099 260.761 410.891 262.9 410.057 266.123C408.044 273.882 409.211 284.906 416.548 285.107C424.535 285.329 425.56 273.327 423.215 265.32H423.209Z" fill="#D9D9D9"/>
<path d="M861.266 291.334C854.267 291.107 849.022 286.528 847.501 279.978C846.434 275.393 846.408 270.554 847.374 265.959C849.054 257.94 856.18 253.176 864.161 254.359C876.347 256.16 878.771 269.867 875.877 280.685C874.091 287.362 868.492 291.567 861.272 291.334H861.266ZM868.529 265.821C867.742 262.462 864.927 260.555 861.821 260.513C858.704 260.47 855.989 262.541 855.134 265.811C852.963 274.088 854.151 285.624 862.349 285.117C869.607 284.668 870.357 273.613 868.529 265.821Z" fill="#D9D9D9"/>
<path d="M964.813 275.245L950.741 275.387L950.778 284.885L967 284.922L966.947 290.959L943.209 290.938L943.22 254.634L966.889 254.597L966.968 260.777L950.847 260.941L950.768 269.197L964.808 269.244L964.813 275.245Z" fill="#D9D9D9"/>
<path d="M806.713 289.069C801.436 292.212 794.379 292.032 789.166 289.233C785.368 287.194 783.25 283.48 783.561 279.403L791.046 279.366C790.83 282.535 792.832 284.901 795.927 285.192C797.929 285.382 800.111 285.435 801.801 284.305C803.243 283.338 803.518 281.663 803.032 280.026C801.526 274.939 784.354 275.879 784.591 264.079C784.66 260.672 786.525 257.645 789.853 255.971C794.485 253.636 799.931 253.53 804.664 255.701C808.536 257.476 810.701 261.031 810.749 265.584H803.264C803.132 264.058 802.852 262.32 801.526 261.443C799.355 260.012 796.35 260.059 794.131 261.248C792.631 262.051 791.913 263.487 792.245 265.035C792.499 266.218 793.687 267.317 795.151 267.946L805.794 272.499C808.911 273.83 810.49 277.063 810.707 279.989C810.965 283.533 810.252 286.961 806.719 289.064L806.713 289.069Z" fill="#D9D9D9"/>
<path d="M555.196 283.396L542.804 283.523L540.105 290.918L532.145 290.86L545.387 254.587H552.381L565.375 290.717H557.393L555.191 283.396H555.196ZM553.104 276.983L549.005 264.591L544.679 277.184L553.104 276.983Z" fill="#D9D9D9"/>
<path d="M736.185 283.5L723.824 283.437L721.278 290.938L713.334 290.859L726.455 254.808L733.575 254.602L746.231 290.452C743.738 291.054 741.213 290.763 738.562 290.732L736.179 283.5H736.185ZM734.088 277.014L729.994 264.4L725.705 277.23L734.088 277.014Z" fill="#D9D9D9"/>
<path d="M489.478 283.506L476.97 283.358L474.461 290.859L466.67 290.907L471.392 277.622L479.775 254.808L486.79 254.634L499.768 290.848H491.861L489.473 283.506H489.478ZM487.45 276.999L483.293 264.422L479.046 277.236L487.45 277.004V276.999Z" fill="#D9D9D9"/>
<path d="M636.273 275.229L622.244 275.356L622.254 284.896L638.56 284.912L638.544 290.769L614.748 290.96L614.759 254.65L638.412 254.618L638.528 260.772L622.28 260.867L622.265 269.202L636.273 269.26V275.229Z" fill="#D9D9D9"/>
<path d="M444.339 279.592C445.263 283.908 448.765 285.868 452.674 284.938C455.595 284.241 457.333 281.98 457.238 278.821L464.855 278.615C464.982 286.206 458.97 290.997 451.676 291.361C443.826 291.757 437.514 287.051 436.378 279.043C435.803 274.971 435.787 270.586 436.415 266.508C437.662 258.406 444.186 253.62 452.225 254.164C459.567 254.661 465.124 259.916 464.886 267.359H457.412C457.671 263.793 455.896 261.327 452.568 260.666C448.623 259.879 445.089 261.865 444.228 266.044C443.367 270.222 443.362 275.066 444.333 279.598L444.339 279.592Z" fill="#D9D9D9"/>
<path d="M833.482 277.76L822.971 278.219V290.802L815.544 290.733L815.533 254.64L831.359 254.777C838.516 254.84 843.159 260.556 842.779 267.486C842.483 272.837 839.208 276.703 833.482 277.76ZM835.125 266.657C835.183 263.461 833.244 260.92 830.244 260.904L822.971 260.867L823.008 272.097L830.323 272.076C833.239 272.071 835.067 269.789 835.125 266.657Z" fill="#D9D9D9"/>
<path d="M669.353 290.69L662.132 290.928L662.032 260.925L651.6 260.851L651.652 254.623L680.187 254.57L680.292 260.872L669.332 260.967L669.353 290.69Z" fill="#D9D9D9"/>
<path d="M928.645 290.627L921.24 290.759L921.213 260.978L910.564 260.729L910.659 254.634H939.268L939.331 260.84L928.661 260.972L928.645 290.627Z" fill="#D9D9D9"/>
<path d="M399.804 284.89L399.846 290.933L377.186 290.911V254.76L384.559 254.755V284.879L399.804 284.89Z" fill="#D9D9D9"/>
<path d="M557.853 245.633C557.964 248.142 556.881 250.413 555.233 251.433C551.446 253.783 548.118 250.022 545.984 250.133C544.927 250.186 544.98 253.16 539.92 252.056C540.063 250.308 540.438 248.364 541.663 247.064C545.017 243.52 548.916 247.054 551.705 247.482C552.698 247.635 552.993 246.219 553.527 245.86C554.763 245.089 556.305 245.554 557.853 245.633Z" fill="#D9D9D9"/>
</svg>
