<svg width="602" height="138" viewBox="0 0 602 138" fill="none" xmlns="http://www.w3.org/2000/svg" role="img" aria-label="HT — logotipo para fundo claro">
<path d="M239.522 135.25C235.613 135.25 232.289 134.46 229.167 132.497C226.248 130.535 223.888 128.19 222.137 125.055C220.563 121.92 219.599 118.403 219.599 114.477C219.599 110.17 220.563 106.627 222.137 103.492C223.888 100.357 226.248 98.0121 229.167 96.0495C232.289 94.4692 235.614 93.2967 239.319 93.2967C242.644 93.2967 245.359 94.0869 247.897 95.2593C250.435 96.4318 252.593 98.012 254.141 100.357C255.715 102.32 256.882 105.072 257.263 107.799H249.649C249.065 105.455 247.897 103.874 246.146 102.32C244.395 100.739 242.238 100.357 239.522 100.357C237.187 100.357 235.233 100.739 233.482 101.937C231.73 103.11 230.36 104.69 229.573 106.653C228.609 108.997 227.999 111.368 227.999 114.503C227.999 117.256 228.583 119.6 229.573 121.945C230.36 123.908 231.73 125.463 233.482 126.661C235.233 127.833 237.187 128.623 239.522 128.623C242.263 128.623 244.395 127.833 246.146 126.661C247.897 125.08 249.065 123.143 249.649 120.773H257.263C256.882 123.908 255.689 126.253 254.141 128.623C252.39 130.586 250.435 132.141 247.897 133.339C245.359 134.511 242.441 135.301 239.497 135.301L239.522 135.25Z" fill="#0F0F0F"/>
<path d="M280.892 135.25C276.78 135.25 273.075 134.46 270.156 132.497C267.034 130.535 264.496 128.19 262.923 125.055C261.171 121.92 260.181 118.403 260.181 114.07C260.181 110.144 261.146 106.627 262.923 103.492C264.674 100.357 267.034 98.0121 270.156 96.0495C273.075 94.4692 276.78 93.2967 280.892 93.2967C285.003 93.2967 288.506 94.4692 291.627 96.0495C294.749 98.0121 297.084 100.357 298.861 103.492C300.637 106.627 301.399 110.144 301.399 114.07C301.399 118.377 300.612 121.92 298.861 125.055C297.11 128.19 294.749 130.535 291.627 132.497C288.506 134.46 285.003 135.25 280.892 135.25ZM280.892 128.598C283.227 128.598 285.384 127.808 287.135 126.635C289.089 125.463 290.46 123.882 291.424 121.538C292.592 119.575 292.998 116.822 292.998 114.095C292.998 109.788 292.034 106.245 289.673 103.9C287.338 101.555 284.394 100.382 280.892 100.382C277.186 100.382 274.267 101.555 272.11 103.9C269.775 106.653 268.608 109.788 268.608 114.095C268.608 116.848 269.191 119.575 270.181 121.538C271.146 123.882 272.719 125.463 274.47 126.635C276.425 127.808 278.582 128.598 280.917 128.598H280.892Z" fill="#0F0F0F"/>
<path d="M307.642 94.0869H315.459V103.9H315.84V134.486H307.642V94.0869ZM336.144 134.46V108.59C336.144 105.837 335.357 103.874 333.987 102.32C332.616 101.147 330.662 100.357 327.946 100.357C325.611 100.357 323.454 100.739 321.703 101.937C319.952 103.11 318.378 104.282 317.414 106.245C316.449 108.207 315.84 110.17 315.84 112.897L314.876 103.084C316.246 100.331 318.2 97.6042 320.916 96.024C323.657 94.4437 326.779 93.2713 330.484 93.2713C334.774 93.2713 338.098 94.4437 340.636 97.1964C342.971 99.5413 344.139 102.676 344.139 106.602V134.435H336.144V134.46Z" fill="#0F0F0F"/>
<path d="M367.565 135.25C362.489 135.25 358.2 134.078 355.078 131.733C352.159 129.388 350.382 126.253 349.799 121.92H357.413C357.793 124.265 358.783 126.227 360.535 127.4C362.286 128.572 364.824 129.362 367.768 129.362C370.509 129.362 372.463 128.572 374.011 127.782C375.382 126.61 375.966 125.437 375.966 123.857C375.966 122.277 375.585 121.512 374.798 120.34C374.011 119.55 372.463 118.759 370.103 118.377L363.656 116.797C359.545 116.007 356.626 114.452 354.672 112.489C352.717 110.527 351.753 108.182 351.753 105.047C351.753 101.529 353.124 98.7767 355.662 96.4318C358.403 94.4692 362.108 93.2967 366.778 93.2967C371.448 93.2967 375.179 94.4692 378.098 96.4318C381.016 98.7767 382.59 101.529 382.971 105.455H375.356C375.153 103.492 374.189 101.937 372.615 101.147C371.245 99.9746 369.113 99.5668 366.575 99.5668C364.24 99.5668 362.286 99.9492 361.118 100.739C359.748 101.529 359.164 102.702 359.164 104.257C359.164 105.811 359.545 106.602 360.535 107.392C361.499 108.564 363.276 108.972 365.407 109.737L372.032 111.317C375.737 112.107 378.656 113.662 380.61 116.032C382.564 117.995 383.529 120.747 383.529 123.475C383.529 127.4 382.158 130.127 379.417 132.09C376.499 134.052 372.59 135.225 367.514 135.225L367.565 135.25Z" fill="#0F0F0F"/>
<path d="M402.513 135.25C399.772 135.25 397.437 134.868 395.483 133.67C393.326 132.497 391.777 130.917 390.788 128.955C389.62 126.992 389.036 124.647 389.036 121.894V94.0614H397.234V119.932C397.234 123.067 397.818 125.029 399.188 126.202C400.559 127.782 402.513 128.547 405.051 128.547C407.386 128.547 409.34 127.757 411.092 126.584C412.843 125.794 414.213 124.239 415.203 122.277C416.168 120.696 416.777 118.352 416.777 116.007L417.741 125.412C416.371 128.547 414.416 130.892 411.701 132.472C409.163 134.435 406.041 135.225 402.539 135.225L402.513 135.25ZM417.158 134.46V125.055H416.777V94.0869H424.772V134.46H417.158Z" fill="#0F0F0F"/>
<path d="M434.315 134.46V77.6216H442.512V134.46H434.315Z" fill="#0F0F0F"/>
<path d="M447.588 100.739V94.0869H475.1V100.739H447.588ZM469.263 135.25C464.568 135.25 461.065 134.078 458.908 132.115C456.751 129.77 455.583 126.635 455.583 122.302V85.0641L463.781 81.929V122.302C463.781 124.647 464.365 126.227 465.354 127.018C466.522 128.19 468.273 128.598 470.811 128.598C471.776 128.598 472.562 128.598 473.349 128.215C473.933 128.215 474.72 127.833 475.1 127.833V134.486C474.517 134.486 473.73 134.868 472.765 134.868C471.598 135.25 470.43 135.25 469.263 135.25Z" fill="#0F0F0F"/>
<path d="M497.384 135.25C493.273 135.25 489.567 134.46 486.648 132.497C483.527 130.535 480.989 128.19 479.415 125.055C477.664 121.92 476.674 118.403 476.674 114.07C476.674 110.144 477.638 106.627 479.415 103.492C481.166 100.357 483.527 98.0121 486.648 96.0495C489.567 94.4692 493.273 93.2967 497.384 93.2967C501.496 93.2967 504.998 94.4692 508.12 96.0495C511.242 98.0121 513.577 100.357 515.353 103.492C517.104 106.627 517.891 110.144 517.891 114.07C517.891 118.377 517.104 121.92 515.353 125.055C513.602 128.19 511.242 130.535 508.12 132.497C504.998 134.46 501.496 135.25 497.384 135.25ZM497.384 128.598C499.719 128.598 501.876 127.808 503.628 126.635C505.582 125.463 506.952 123.882 507.917 121.538C509.084 119.575 509.49 116.822 509.49 114.095C509.49 109.788 508.526 106.245 506.166 103.9C503.831 101.555 500.887 100.382 497.384 100.382C493.679 100.382 490.76 101.555 488.603 103.9C486.268 106.653 485.1 109.788 485.1 114.095C485.1 116.848 485.684 119.575 486.674 121.538C487.638 123.882 489.212 125.463 490.963 126.635C492.917 127.808 495.075 128.598 497.41 128.598H497.384Z" fill="#0F0F0F"/>
<path d="M524.109 134.46V94.0869H531.926V104.282H532.307V134.46H524.109ZM532.307 113.305L531.343 103.9C532.307 100.382 533.881 98.0121 536.216 96.0495C538.551 94.4692 541.292 93.2967 544.414 93.2967C545.581 93.2967 546.571 93.6791 546.952 93.6791V101.529C546.749 101.529 546.368 101.147 545.784 101.147H544.21C540.099 101.147 537.18 102.32 535.226 104.282C533.272 106.245 532.307 109.38 532.307 113.305Z" fill="#0F0F0F"/>
<path d="M551.241 86.2365V77.2137H560.403V86.2365H551.241ZM551.647 134.46V94.0869H559.845V134.46H551.647Z" fill="#0F0F0F"/>
<path d="M579.743 135.25C575.631 135.25 572.332 134.078 569.971 132.115C567.433 130.153 566.266 127.4 566.266 123.882C566.266 120.365 567.636 117.612 570.174 115.65C572.712 113.305 576.418 112.132 581.113 111.342L594.387 108.997V114.885L582.281 116.848C579.743 117.23 577.585 118.02 576.418 118.81C575.047 119.983 574.26 121.563 574.26 123.118C574.26 125.08 574.844 126.635 576.215 127.425C577.382 128.215 579.134 129.006 581.494 129.006C584.616 129.006 587.357 128.215 589.311 126.661C591.468 125.08 592.433 123.143 592.433 120.773L593.397 126.661C592.61 129.413 590.859 131.376 588.524 132.931C585.986 134.511 583.067 135.276 579.743 135.276V135.25ZM593.397 134.46C593.194 133.288 593.016 132.497 593.016 131.325C592.813 129.745 592.813 128.572 592.813 126.61H592.433V107.392C592.433 105.047 591.849 103.084 590.478 101.912C589.311 100.331 587.154 99.9491 584.438 99.9491C581.9 99.9491 579.743 100.331 577.991 101.529C576.418 102.32 575.453 103.874 575.25 105.837H567.433C567.814 102.32 569.591 99.1845 572.509 96.8141C575.631 94.4692 579.743 93.2967 584.819 93.2967C589.895 93.2967 593.981 94.877 596.519 97.2219C599.26 99.5668 600.427 103.11 600.427 107.799V126.61C600.427 127.782 600.63 129.362 600.63 130.535C600.833 131.707 601.214 132.88 601.417 134.46H593.397Z" fill="#0F0F0F"/>
<path d="M96.1629 46.1086L86.0199 56.3525H34.6953L24.5522 46.1086V0H0V61.1564L7.50933 68.7241L0 76.27V137.426H24.5522V91.3178L34.6953 81.0958H86.0199L96.1629 91.3178V137.426H120.715V76.27L113.206 68.7241L120.715 61.1564L120.715 34.8147H96.1629L96.1629 46.1086Z" fill="#A37C55"/>
<path d="M219.599 24.7433V11.7355L207.954 0H107.808L96.1629 11.7355V24.7433H139.325L145.594 31.0608V137.426H170.146V31.0608L176.436 24.7433H219.599Z" fill="#A37C55"/>
</svg>
